<?xml version="1.0" encoding="utf-8"?>
<svg x="0pt" y="0pt" width="640pt" height="360pt" viewBox="0 0 640 360" xmlns="http://www.w3.org/2000/svg" xmlns:xlink="http://www.w3.org/1999/xlink">
  <g id="1">
    <title>Layer 1</title>
    <defs>
      <title>Shape 1</title>
      <g id="2">
        <defs>
          <path id="3" d="M576.353,54.4605 C551.825,54.4605,527.297,54.4605,502.769,54.4605 C502.769,48.7067,502.769,42.953,502.769,37.1992 C502.769,32.2257,498.739,28.1958,493.765,28.1958 C478.76,28.1958,463.754,28.1958,448.748,28.1958 C443.775,28.1958,439.745,32.2257,439.745,37.1992 C439.745,42.953,439.745,48.7067,439.745,54.4605 C434.192,54.4605,428.64,54.4605,423.087,54.4605 C423.087,48.7067,423.087,42.953,423.087,37.1992 C423.087,32.2257,419.057,28.1958,414.084,28.1958 C399.078,28.1958,384.072,28.1958,369.067,28.1958 C364.093,28.1958,360.063,32.2257,360.063,37.1992 C360.063,42.953,360.063,48.7067,360.063,54.4605 C360.063,54.4605,63.6465,54.4605,63.6465,54.4605 C38.8241,54.4605,18.6295,74.6551,18.6295,99.4774 C18.6295,146.361,18.6295,193.245,18.6295,240.128 C18.6295,261.868,34.1208,280.057,54.6431,284.24 C54.6431,293.928,54.6431,303.616,54.6431,313.304 C54.6431,318.278,58.673,322.308,63.6465,322.308 C99.8791,322.308,136.112,322.308,172.344,322.308 C177.318,322.308,181.348,318.278,181.348,313.304 C181.348,303.918,181.348,294.532,181.348,285.145 C273.783,285.145,366.217,285.145,458.652,285.145 C458.652,294.532,458.652,303.918,458.652,313.304 C458.652,318.278,462.682,322.308,467.656,322.308 C503.888,322.308,540.121,322.308,576.354,322.308 C581.327,322.308,585.357,318.278,585.357,313.304 C585.357,303.616,585.357,293.928,585.357,284.24 C605.879,280.057,621.37,261.868,621.37,240.128 C621.37,193.245,621.37,146.361,621.37,99.4775 C621.37,74.6551,601.178,54.4605,576.353,54.4605 z M457.752,46.2026 C466.755,46.2026,475.759,46.2026,484.762,46.2026 C484.762,48.9552,484.762,51.7079,484.762,54.4605 C475.759,54.4605,466.755,54.4605,457.752,54.4605 C457.752,54.4605,457.752,46.2026,457.752,46.2026 z M378.07,46.2026 C387.073,46.2026,396.077,46.2026,405.08,46.2026 C405.08,48.9552,405.08,51.7079,405.08,54.4605 C396.077,54.4605,387.073,54.4605,378.07,54.4605 C378.07,54.4605,378.07,46.2026,378.07,46.2026 z M163.341,304.301 C163.341,304.301,72.6499,304.301,72.6499,304.301 C72.6499,297.916,72.6499,291.531,72.6499,285.145 C102.88,285.145,133.111,285.145,163.341,285.145 C163.341,285.145,163.341,304.301,163.341,304.301 z M567.35,304.301 C537.12,304.301,506.889,304.301,476.659,304.301 C476.659,297.916,476.659,291.531,476.659,285.145 C506.889,285.145,537.12,285.145,567.35,285.145 C567.35,285.145,567.35,304.301,567.35,304.301 z M576.353,267.14 C567.118,267.14,84.2768,267.14,63.6465,267.14 C48.7531,267.14,36.6363,255.024,36.6363,240.13 C36.6363,193.247,36.6363,146.363,36.6363,99.4792 C36.6363,84.5858,48.7531,72.4691,63.6465,72.4691 C165.453,72.4691,267.26,72.4691,369.067,72.4691 C384.072,72.4691,399.078,72.4691,414.084,72.4691 C425.639,72.4691,437.194,72.4691,448.748,72.4691 C463.754,72.4691,478.76,72.4691,493.765,72.4691 C521.295,72.4691,548.824,72.4691,576.354,72.4691 C591.247,72.4691,603.364,84.5859,603.364,99.4792 C603.364,146.363,603.364,193.247,603.364,240.13 C603.364,240.13,603.364,240.13,603.364,240.13 C603.364,255.024,591.247,267.14,576.353,267.14 z"/>
        </defs>
        <use xlink:href="#3" style="fill:#000000;fill-opacity:1;fill-rule:evenodd;opacity:1;stroke:none;"/>
      </g>
    </defs>
    <use xlink:href="#2"/>
    <defs>
      <title>Shape 2</title>
      <g id="4">
        <defs>
          <path id="5" d="M493.765,86.0732 C447.594,86.0732,410.034,123.634,410.034,169.805 C410.034,215.976,447.594,253.536,493.765,253.536 C539.937,253.536,577.497,215.976,577.497,169.805 C577.497,123.634,539.937,86.0732,493.765,86.0732 z M493.765,235.529 C457.525,235.529,428.041,206.045,428.041,169.805 C428.041,133.564,457.525,104.08,493.765,104.08 C530.006,104.08,559.49,133.564,559.49,169.805 C559.49,206.045,530.006,235.529,493.765,235.529 z"/>
        </defs>
        <use xlink:href="#5" style="fill:#0090e8;fill-opacity:1;fill-rule:evenodd;opacity:1;stroke:none;"/>
      </g>
    </defs>
    <use xlink:href="#4"/>
    <defs>
      <title>Shape 3</title>
      <g id="6">
        <defs>
          <path id="7" d="M493.765,118.037 C465.219,118.037,441.998,141.259,441.998,169.805 C441.998,198.351,465.219,221.572,493.765,221.572 C522.312,221.572,545.533,198.351,545.533,169.805 C545.533,141.259,522.312,118.037,493.765,118.037 z M493.765,203.566 C475.15,203.566,460.005,188.42,460.005,169.805 C460.005,151.189,475.15,136.044,493.765,136.044 C512.381,136.044,527.526,151.189,527.526,169.805 C527.526,188.42,512.381,203.566,493.765,203.566 z"/>
        </defs>
        <use xlink:href="#7" style="fill:#0a0057;fill-opacity:1;fill-rule:evenodd;opacity:1;stroke:none;"/>
      </g>
    </defs>
    <use xlink:href="#6"/>
    <defs>
      <title>Shape 4</title>
      <g id="8">
        <defs>
          <path id="9" d="M170.544,126.138 C139.332,126.138,108.12,126.138,76.9085,126.138 C71.935,126.138,67.9051,130.168,67.9051,135.142 C67.9051,140.115,71.935,144.145,76.9085,144.145 C108.12,144.145,139.332,144.145,170.544,144.145 C175.517,144.145,179.547,140.115,179.547,135.142 C179.547,130.168,175.517,126.138,170.544,126.138 z"/>
        </defs>
        <use xlink:href="#9" style="fill:#505050;fill-opacity:1;fill-rule:evenodd;opacity:1;stroke:none;"/>
      </g>
    </defs>
    <use xlink:href="#8"/>
    <defs>
      <title>Shape 5</title>
      <g id="10">
        <defs>
          <path id="11" d="M223.363,126.138 C215.36,126.138,207.357,126.138,199.355,126.138 C194.381,126.138,190.351,130.168,190.351,135.142 C190.351,140.115,194.381,144.145,199.355,144.145 C207.357,144.145,215.36,144.145,223.363,144.145 C228.337,144.145,232.366,140.115,232.366,135.142 C232.366,130.168,228.336,126.138,223.363,126.138 z"/>
        </defs>
        <use xlink:href="#11" style="fill:#505050;fill-opacity:1;fill-rule:evenodd;opacity:1;stroke:none;"/>
      </g>
    </defs>
    <use xlink:href="#10"/>
    <defs>
      <title>Shape 6</title>
      <g id="12">
        <defs>
          <path id="13" d="M170.544,160.801 C139.332,160.801,108.12,160.801,76.9085,160.801 C71.935,160.801,67.9051,164.831,67.9051,169.805 C67.9051,174.778,71.935,178.808,76.9085,178.808 C108.12,178.808,139.332,178.808,170.544,178.808 C175.517,178.808,179.547,174.778,179.547,169.805 C179.547,164.831,175.517,160.801,170.544,160.801 z"/>
        </defs>
        <use xlink:href="#13" style="fill:#505050;fill-opacity:1;fill-rule:evenodd;opacity:1;stroke:none;"/>
      </g>
    </defs>
    <use xlink:href="#12"/>
    <defs>
      <title>Shape 7</title>
      <g id="14">
        <defs>
          <path id="15" d="M223.363,160.801 C215.36,160.801,207.357,160.801,199.355,160.801 C194.381,160.801,190.351,164.831,190.351,169.805 C190.351,174.778,194.381,178.808,199.355,178.808 C207.357,178.808,215.36,178.808,223.363,178.808 C228.337,178.808,232.366,174.778,232.366,169.805 C232.366,164.831,228.336,160.801,223.363,160.801 z"/>
        </defs>
        <use xlink:href="#15" style="fill:#505050;fill-opacity:1;fill-rule:evenodd;opacity:1;stroke:none;"/>
      </g>
    </defs>
    <use xlink:href="#14"/>
    <defs>
      <title>Shape 8</title>
      <g id="16">
        <defs>
          <path id="17" d="M170.544,195.464 C139.332,195.464,108.12,195.464,76.9085,195.464 C71.935,195.464,67.9051,199.494,67.9051,204.468 C67.9051,209.441,71.935,213.471,76.9085,213.471 C108.12,213.471,139.332,213.471,170.544,213.471 C175.517,213.471,179.547,209.441,179.547,204.468 C179.547,199.494,175.517,195.464,170.544,195.464 z"/>
        </defs>
        <use xlink:href="#17" style="fill:#505050;fill-opacity:1;fill-rule:evenodd;opacity:1;stroke:none;"/>
      </g>
    </defs>
    <use xlink:href="#16"/>
    <defs>
      <title>Shape 9</title>
      <g id="18">
        <defs>
          <path id="19" d="M223.363,195.464 C215.36,195.464,207.357,195.464,199.355,195.464 C194.381,195.464,190.351,199.494,190.351,204.468 C190.351,209.441,194.381,213.471,199.355,213.471 C207.357,213.471,215.36,213.471,223.363,213.471 C228.337,213.471,232.366,209.441,232.366,204.468 C232.366,199.494,228.336,195.464,223.363,195.464 z"/>
        </defs>
        <use xlink:href="#19" style="fill:#505050;fill-opacity:1;fill-rule:evenodd;opacity:1;stroke:none;"/>
      </g>
    </defs>
    <use xlink:href="#18"/>
  </g>
</svg>
